<svg fill="none" height="584" viewBox="0 0 1440 584" width="1440" xmlns="http://www.w3.org/2000/svg"><g fill="#231f20"><path d="m213.508 578.122c-23.11 3.343-46.062-3.308-61.297-21.553-13.963-16.724-20.808-38.744-23.841-60.003-5.972-41.856 3.784-84.52 19.617-123.192 32.556-79.52 88.688-148.037 146.045-210.945 27.564-30.232 56.36-59.383 87.727-85.6972 15.408-12.9267 31.415-25.16 48.096-36.3974 16.352-11.0173 34.471-23.9226 53.237-30.4213 3.902-1.35067 8.055-2.4533 12.22-2.21997 7.683.42933 7.623 7.28667 7.131 13.39867-.964 11.988-4.413 23.9893-8.036 35.4053-6.747 21.2627-15.005 42.1054-23.223 62.8329-17.125 43.202-35.549 85.892-53.778 128.635-20.304 47.605-40.838 95.1-61.644 142.487-10.648 24.253-21.458 48.433-32.214 72.638-3.464 7.795-11.126 17.43-5.613 25.684 2.533 3.795 14.713 13.086 16.327 3.895.956-5.444-6.64-11.408-11.2-12.537-.23-.058-.46-.114-.69-.171-4.114-1.019-5.577 1.437-4.444 5.112 1.254 4.063 6.626 8.263 10.652 9.259.23.057.458.113.688.17-3.733-4.18-7.468-8.357-11.202-12.537.486-.147.97-.293 1.457-.439 4.128 3.163 8.257 6.327 12.387 9.491-.756-1.428 4.262-10.691 5.142-12.859 2.402-5.921 4.803-11.842 7.206-17.764 4.793-11.818 9.586-23.638 14.38-35.458 9.329-23.004 18.794-45.952 28.204-68.924 19.01-46.418 38.457-92.655 57.562-139.034 18.456-44.804 37.031-89.612 53.051-135.3595 3.664-10.4614 7.203-20.9814 9.887-31.7441 2.522-10.104 6.164-23.1973 3.678-33.6373-3.194-13.42398-16.81-18.20665-29.148-15.447982-8.788 1.965332-16.676 6.848012-24.416 11.231982-9.356 5.3-18.512 10.944-27.481 16.8747-17.583 11.6253-34.408 24.3587-50.567 37.888-33.277 27.8653-63.753 58.9982-92.869 91.1362-59.687 65.884-118.624 138.404-149.568 222.853-16.273 44.408-23.96 93.844-9.148 139.768 6.151 19.073 16.632 37.309 32.784 49.608 15.136 11.525 36.335 18.808 54.075 9.301.678-.362-.703-1.397-1.174-1.328z"/><path d="m5.69147 236.227c-14.49333 21 4.70803 43.972 23.58133 53.698 27.5147 14.18 62.3693 14.15 92.4962 12.818 70.496-3.119 141.064-14.139 210.574-25.772 39.844-6.668 79.544-14.207 118.882-23.418 2.324-.545-2.219-5.489-4.036-5.249-62.352 8.241-124.2 19.841-186.423 28.977-32.081 4.711-64.233 8.91-96.495 12.176-30.153 3.054-60.802 6.342-91.1195 3.95-15.456-1.22-32.2467-3.408-46.196-10.647-16.164-8.385-25.36403-27.457-19.53603-45.217.18667-.567-1.32933-1.894-1.728-1.316z"/><path d="m449.296 248.115c-6.691 11.481-11.647 24.073-16.18 36.533-3.754 10.32-10.399 23.828-10.15 34.967.144 6.389 8.134 19.514 16.138 14.844 4.021-2.347 6.661-9.046 9.134-12.935 3.556-5.589 7.122-11.171 10.696-16.747 6.607-10.305 13.519-21.669 22.406-30.213 3.374-3.244 7.322-7.525 12.049-1.605 1.408 1.764 1.629 6.13 2.247 8.454 1.105 4.159 1.91 8.724 4.172 12.458 12.12 20.001 33.71-7.35 36.28-20.827.349-1.835-3.138-4.844-4.81-3.661-6.608 4.673-10.502 12.093-15.95 18.002-2.731 2.964-6.611 9.108-10.028 3.528-1.728-2.822-2.059-8.006-2.906-11.229-2.178-8.289-5.929-17.76-16.113-18.221-12.177-.552-21.752 16.45-27.839 24.854-4.754 6.566-9.358 13.235-14.009 19.874-3.067 4.376-9.932 17.777-15.716 18.352 2.397 1.38 4.793 2.762 7.189 4.142-2.15-2.317 2.95-14.368 3.756-17.033 1.891-6.255 3.942-12.463 6.143-18.617 4.417-12.356 9.843-24.298 14.461-36.568 1.383-3.674-8.85-11.991-10.97-8.352z"/><path d="m573.302 266.293c4.419-7.321-3.085-15.243-9.903-17.712-11.918-4.32-23.936 7.451-31.048 15.656-7.721 8.904-16.005 22.316-16.094 34.539-.063 8.505 7.529 16.832 16.394 15.854 10.458-1.154 21.28-13.377 28.71-19.966 10.068-8.928 19.529-18.56 28.208-28.846 16.846-19.969 30.722-42.549 40.064-66.988 5.448-14.253 9.284-29.129 11.241-44.266 1.393-10.782.916-20.018-9.472-25.702-.896-.49-2.829-1.08-3.641-.069-24.739 30.852-43.026 67.907-47.167 107.593-1.448 13.878-4.051 34.912 5.108 46.735 12.563 16.215 27.723-2.117 36.628-12.715 2.704-3.218-6.815-11.334-9.341-8.12-2.596 3.299-5.27 6.507-8.184 9.532-1.983 2.06-7.715 9.115-10.679 9.132-6.065.036-5.275-15.122-5.373-18.988-.392-15.338 1.717-30.748 5.625-45.568 7.781-29.52 22.831-56.512 41.895-80.202l-3.642-.068c1.326.726-1.329 15.193-1.516 16.412-.817 5.344-1.868 10.648-3.141 15.904-2.627 10.845-6.2 21.452-10.603 31.705-8.878 20.677-21.258 39.809-35.725 57.005-13.925 16.552-30.144 32.66-48.059 44.908.854-.582-7.948 4.556-7.005 4.932-1.168-.465 1.376-7.969 1.687-8.886 1.916-5.67 4.64-11.196 7.828-16.256 2.897-4.599 6.304-8.888 10.137-12.742 2.232-2.244 4.601-4.377 7.136-6.274.207-.155 14.663-10.271 13.544-1.402-.241 1.919 4.94 7.263 6.388 4.863z"/><path d="m615.111 267.737c-2.27 7.145-7.93 17.473-4.108 24.947 2.652 5.182 8.711 8.34 14.319 6.4 7.984-2.764 14.761-12.82 19.719-19.056 6.354-7.994 12.261-16.428 19.665-23.516 4.407-4.219 12.421-12.022 17.435-3.311 2.641 4.589 1.804 11.695 1.356 16.755-.984 11.066-4.354 21.912-9.479 31.752-8.941 17.166-22.543 31.648-37.736 43.464-17.227 13.394-37.033 23.696-57.468 31.244-10.511 3.881-21.537 7.417-32.588 9.386-4.352.775-16.584 3.371-18.131-2.538-1.112-4.255 6.987-12.208 9.628-15.16 14.516-16.21 33.144-27.93 52.3-37.888 20.415-10.612 41.463-20.206 62.675-29.102 49.573-20.789 101.944-36.573 156.121-36.676-2.198-2.858-4.396-5.717-6.596-8.576-4.306.998-8.613 1.995-12.921 2.994-3.644.844 3.699 9.449 7.539 8.532 4.285-1.022 8.57-2.044 12.856-3.067 4.14-.988-4.063-8.596-6.595-8.577-53.447.413-105.328 15.901-154.328 36.268-23.971 9.964-47.871 20.752-70.708 33.118-19.833 10.742-40.559 23.855-54.088 42.335-4.747 6.484-7.085 13.792-1.152 20.372 6.681 7.412 17.333 7.968 26.576 6.793 23.273-2.961 46.749-12.712 67.209-23.849 37.128-20.209 75.191-54.732 76.234-100.159.444-19.356-16.339-39.476-34.619-23.4-9.808 8.626-16.923 19.76-25.296 29.672-3.799 4.498-9.12 11.946-14.893 13.943.317.261.634.523.952.784.326-1.816.724-3.616 1.192-5.401.892-4.506 1.556-9.067 2.326-13.594.459-2.69-6.334-8.23-7.396-4.889z"/><path d="m929.415 241.697c7.843-4.854 10.12-13.126 3.278-19.964-8.422-8.413-15.691-2.993-22.806 3.868-12.397 11.955-37.765 38.055-25.329 57.318 12.463 19.301 35.403 2.994 48.729-5.99 21.51-14.5 43.63-33.394 56.212-56.414.971-1.776-3.141-5.575-4.634-4.028-10.983 11.369-20.991 23.485-32.972 33.877-12.842 11.139-27.018 20.86-42.22 28.5-2.804 1.411-5.622 2.649-8.698 3.347-4.92 1.116-7.88 1.462-7.916-4.374-.046-7.886 4.634-16.352 8.871-22.664 4.097-6.106 9.065-11.589 14.213-16.817 2.09-2.123 5.919-7.557 8.842-8.548 5.585-1.891 1.777 6.073 1.078 8.975-.274 1.138 2.22 3.614 3.352 2.914z"/><path d="m1033.08 149.436c4.89-2.55 8.99-6.665 6.04-12.208-.9-1.684-7.19-8.773-9.41-5.38-10.15 15.466-18.55 32.359-27.55 48.514-8.979 16.096-17.999 32.165-26.901 48.301-16.542 29.987-34.594 61.12-44.178 94.203-3.768 13.006-7.903 30.985-2.767 44.215 3.225 8.31 12.656 14.762 20.071 7.538 5.041-4.914 8.921-11.824 12.944-17.585 4.9-7.016 9.489-14.239 13.706-21.688 7.532-13.306 13.947-27.3 18.971-41.743 4.276-12.287 10.794-28.731 2.504-40.779-5.027-7.306-16.937-13.826-24.271-6.189-1.349 1.405 2.84 5.104 4.296 4.253 5.062-2.958 11.778-3.642 15.542 3.262 2.389 4.381 1.609 10.337.729 15.021-1.26 6.7-3.708 13.255-6.056 19.636-5.475 14.881-12.36 29.213-20.524 42.808-4.132 6.879-8.548 13.629-13.344 20.067-3.095 4.152-8.236 13.331-13 15.546-2.048 2.199-2.904 1.95-2.571-.753-.182-2.799-.225-5.603-.13-8.408.118-4.217.505-8.412 1.152-12.581 1.222-7.888 3.352-15.608 5.94-23.15 22.396-65.264 66.037-121.032 95.187-183.062-2.73-.75-5.46-1.5-8.19-2.251 3.44 3.643 3.73 7.471.87 11.483-.26.346.61 1.106.94.93z"/><path d="m1067.36 167.652c4.38-3.545 8.42-7.472 12.03-11.793 3.48-4.153 5.75-9.252 9.4-13.188 2.46-2.652-5.89-9.947-8.18-7.113-17.98 22.234-31.57 49.534-44.23 75.042-12.38 24.915-24 50.711-32.37 77.275-4.052 12.848-7.736 27.051-7.118 40.648.319 6.965 5.108 16.595 13.388 16.531 4.67-.038 7.58-4.575 10.08-7.858 4.11-5.41 7.96-11.034 11.41-16.893 6.28-10.665 11.32-22.093 14.91-33.936 3.44-11.336 8.83-27.56 3.09-38.964-3.63-7.227-12.97-13.713-20.85-9.301-2.66 1.493 2.85 6.689 5.13 5.805 17.58-6.809 6.25 31.801 4.02 38.448-4.09 12.179-9.74 23.792-16.8 34.527-3.2 4.857-6.66 9.538-10.5 13.908.25-.286-4.19 4.317-3.85 4.561-.8-.579.38-9.611.51-10.857 1.41-13.45 5.2-26.556 9.7-39.264 8.92-25.24 19.87-49.874 32.01-73.718 12.06-23.682 27.01-45.554 39.65-68.841-2.83-1.88-5.66-3.757-8.49-5.636.24 10.967-6.84 21.964-13.8 29.861-.26.292.56 1 .86.756z"/><path d="m1032.36 233.12c2.41 11.953 16.95 11.146 25.12 6.644 15.51-8.554 28.81-20.95 39.86-34.674 1.9-2.358-4.87-8.152-6.73-5.854-5.83 7.206-43.99 49.064-53.69 35.137-.47-.684-5.13-4.079-4.56-1.253z"/><path d="m1094.7 202.726c-7.03-3.201-9.58 4.519-8.81 10.589.94 7.4 6.62 13.451 13.33 16.22l-5.65-7.248c-5.83 13.203-12.42 26.487-17.3 40.066-2.62 7.28-.61 14.897 7.43 17.704 8.18 2.857 14.76-4.744 20.03-9.763 10.27-9.787 20.5-19.631 30.87-29.311-2.51-1.914-5.03-3.828-7.54-5.741-4.47 11.847 7.78 22.627 18.59 24.208 8.7 1.273 17.76-1.952 25.73-5.091 8.41-3.308 17.77-7.401 24.4-13.654 2.14-2.014-4.18-7.382-6.37-6.312-8.77 4.27-16.61 9.772-25.81 13.312-7.47 2.872-35.38 10.568-28.72-7.299.96-2.601-5.32-7.84-7.54-5.74-6.37 5.996-12.81 11.911-19.23 17.84-6.09 5.617-13.13 14.775-20.75 18.112-4.48 1.969-2.6 0-1.05-3.607 1.77-4.093 3.68-8.133 5.53-12.196 3.92-8.637 7.87-17.262 11.7-25.94 1.14-2.585-3.93-6.537-5.65-7.248-8.57-3.529 3.92-15.666-3.19-18.901z"/><path d="m1190.07 236.645c-4.35 13.571 4.21 35.62 20.62 24.783 8.92-5.885 16.77-13.273 23.51-21.535 5.46-6.677 14.55-16.525 13.56-25.508-.17-1.488-2.89-4.181-4.54-3.469-5.18 2.236-6.95 8.816-10.01 13.447-3.83 5.797-8.17 11.242-12.95 16.28-4.44 4.672-9.19 9.152-14.3 13.088-5.38 4.153-8.18 6.75-9.98-1.534-.91-4.198-.92-8.586-1.16-12.86-.08-1.358-4.06-4.842-4.75-2.692z"/><path d="m1255.3 206.581c1.14-.048 1.46.156 2.03-.756.4-.656.07-1.417-.33-2.001-6.54-9.804-16.26.872-19.48 8.036-4.58 10.213 1.7 19.765 10.87 24.613 5.2 2.751 10.77 3.434 16.38 4.842 4.52 1.133 8.31 2.02 6.73 7.749-1.05 3.825-4.44 7.227-7.45 9.628-5.31 4.239-17.35 9.995-23.49 4.284-5-4.655-2.87-13.803 1.1-18.119 1.61-1.748-3.32-5.918-5.1-5.05-10.98 5.389-7.24 19.237-.08 26.418 9.9 9.938 24.77 8.68 35.77 1.274 13.4-9.024 13.3-23.075-.41-31.54-6.39-3.947-13.35-3.81-20.12-6.372-6.42-2.43-5.56-7.251-2.45-12.796.96-1.724 5.78-10.066 7.71-10.738-1.2-.578-2.4-1.158-3.61-1.737.23.392.45.785.68 1.179.13.478.7 1.109 1.25 1.086z"/><path d="m1235.99 254.609c5.74-3.518 9.14-8.605 15.83-11.088 7.06-2.622 14.73-3.894 22.13-5.17 19.24-3.319 38.75-4.507 58.24-5.294 35.09-1.417 72.46.846 106.28-9.964 2.6-.832-2.51-5.489-4.14-5.39-39.62 2.405-79.25 3.389-118.88 5.457-18.44.963-36.93 2.669-55.08 6.237-10.63 2.092-31.5 6.64-29.61 21.21.19 1.502 3.46 5.09 5.23 4.002z"/><path d="m1136.87 215.625c7.22-1.905 12.18-7.153 15.5-13.649 1-1.975-3.53-6.246-5.15-4.47-4.53 4.986-10.39 8.29-16.28 11.404-3.24 1.71 3.35 7.394 5.93 6.715z"/><path d="m1193.31 241.667c13.02 1.108 21.91-12.596 18.58-24.594-.58-2.09-3.32-5.037-5.76-4.408-20.84 5.383-28.56 36.08-9.56 48.551.89.589 2.77.911 2.1-.772-3.26-8.155-7.43-14.471-4.97-23.721 2.41-9.066 9.22-14.714 17.53-18.282l-5.55-3.712c4.6 11.204-4.06 21.292-14.61 24.03-1.51.392 1.52 2.846 2.24 2.908z"/><path d="m979.095 233.048c-5.575 11.314 13.787 16.972 21.485 17.561 13.78 1.053 32.44-4.668 39.75-17.26.74-1.267-1.97-3.781-3.22-3.191-7.82 3.695-14.59 8.291-23.16 10.299-2.57.601-28.458 4.179-27.566-1.86.336-2.271-5.962-8.241-7.289-5.549z"/><path d="m900.88 248.71c-5.045-1.114-.084 5.569.206 5.866 1.437 1.467 3.369 2.74 5.37 3.274 5.528 1.477 11.467-2.151 15.81-5.195 8.04-5.637 20.697-19.408 10.713-28.373-.621-.559-2.791-2.055-3.591-.987-1.349 1.796-.313 2.488-.47 4.931-.184 2.872-1.83 5.726-3.278 8.114-2.21 3.646-5.001 6.94-8.234 9.716-2.822 2.419-9.576 8.136-13.71 5.53-1.025-.647-1.374-2.559-2.816-2.876z"/><path d="m748.581 109.651c-3.219 1.297-6.416 2.583-9.583 4.003 1.332 1.505 2.661 3.012 3.992 4.517 32.012-17.9 65.151-31.7266 102.213-33.9506 16.403-.9853 38.172-1.8747 51.388 9.6373 14.651 12.7603 11.948 36.0483 9.084 53.1703-6.104 36.503-22.721 71.762-39.51 104.427-17.179 33.423-37.003 65.533-57.399 97.072-24.285 37.553-49.912 74.213-75.531 110.864 2.607.716 5.215 1.432 7.822 2.148-4.811-3.713 4.285-23.848 5.773-27.961 3.808-10.534 8.317-20.812 13.443-30.774 10.04-19.514 22.301-38.237 35.633-55.657 26.769-34.972 59.615-64.225 95.472-89.575 2.023-1.43-3.852-7.128-5.973-5.914-42.792 24.486-80.915 58.417-110.594 97.745-14.566 19.301-26.342 40.655-35.437 63.056-6.957 17.139-19.603 41.705-1.373 55.559 1.134.862 5.032 2.802 6.273.968 49.08-72.542 99.292-145.472 137.243-224.655 16.685-34.813 33.856-73.233 34.742-112.465.344-15.222-3.781-30.494-15.397-40.9963-11.373-10.284-26.663-13.7906-41.601-14.4813-41.778-1.9293-88.32 10.1413-120.604 37.4916-1.439 1.219 3.049 5.591 4.674 4.066 2.339-2.195 4.555-4.47 6.794-6.767.517-.529-1.011-1.743-1.544-1.528z"/><path d="m371.168 486.346c6.667 2.027 12.116 3.923 19.028 2.547 7.903-1.573 15.772-3.287 23.639-5.024 14.504-3.205 29.032-6.311 43.532-9.535 28.977-6.445 58.037-12.422 87.168-18.126 57.829-11.324 115.818-21.734 174.004-31.056 118.428-18.972 237.412-33.955 356.771-45.683 66.35-6.52 132.79-11.841 199.24-17.221 2.82-.228-1.23-4.82-3.12-4.746-119.42 4.764-238.65 16.023-357.29 30.178-117.945 14.072-235.465 31.71-352.46 52.222-33.579 5.887-67.08 12.196-100.615 18.326-16.528 3.021-33.024 6.177-49.497 9.48-7.921 1.589-15.853 3.14-23.745 4.87-9.44 2.071-14.63 1.851-18.956 10.796-.604 1.252 1.273 2.66 2.301 2.972z"/></g></svg>